# xmcd CD database file
#
# Track frame offsets:
#	150
#	20038
#	41851
#	70019
#	87510
#	104036
#	115551
#	131672
#	152164
#	172368
#	186059
#	196682
#	210340
#	226945
#	245539
#	267759
#	277936
#	290043
#	297031
#	304201
#
# Disc length: 4434 seconds
#
# Revision: 0
# Processed by: cddbd v1.5.1PL0 Copyright (c) Steve Scherf et al.
# Submitted via: CDex 1.51
#
DISCID=29115014
DTITLE=殺人ヨットスクール - Swimsuit Squad
DYEAR=1900
DGENRE=エレクトロニック (一般)
TTITLE0=Extremist
TTITLE1=Yat Boon Yan
TTITLE2=All Of You! Say My Name!
TTITLE3=Genocide
TTITLE4=Paragon5 Rock
TTITLE5=Lightaway
TTITLE6=Ping/Ball
TTITLE7=As Been As As ドイツRock!?
TTITLE8=Program: Berbalinan Highway
TTITLE9=Keep Away From Heat
TTITLE10=59
TTITLE11=Spiral Dupe
TTITLE12=Lovely My Wife
TTITLE13=Contakt To Seoul
TTITLE14=Fi De Gyal Dem
TTITLE15=Chophandknife
TTITLE16=Fruity Fruits
TTITLE17=武蔵野アンダーグラウンド
TTITLE18=Destruct
TTITLE19=We Are Another Table
EXTD=
EXTT0=
EXTT1=
EXTT2=
EXTT3=
EXTT4=
EXTT5=
EXTT6=
EXTT7=
EXTT8=
EXTT9=
EXTT10=
EXTT11=
EXTT12=
EXTT13=
EXTT14=
EXTT15=
EXTT16=
EXTT17=
EXTT18=
EXTT19=
PLAYORDER=
